<svg version="1.0" xmlns="http://www.w3.org/2000/svg" width="667.000000pt" height="685.000000pt" viewBox="-3 -3 673 691" preserveAspectRatio="xMidYMid meet"><g id="deeditor_bgCarrier" stroke-width="0">
    <rect id="dee_c_e" x="-3" y="-3" width="673" height="691" rx="0" fill="#000000" strokewidth="0"/>
  </g>
<metadata fill="#ffffff">
Created by potrace 1.16, written by Peter Selinger 2001-2019
</metadata>
<g transform="translate(0.000000,685.000000) scale(0.100000,-0.100000)" fill="#ffffff" stroke="none">
<path d="M1 6608 l0 -243 22 56 c75 191 230 343 424 414 34 12 14 14 -204 14 l-243 1 1 -242z" fill="#ffffff"/>
<path d="M6242 6830 c94 -38 165 -86 244 -165 83 -83 144 -181 170 -274 11 -40 12 -15 13 207 l1 252 -237 -1 -238 0 47 -19z" fill="#ffffff"/>
<path d="M604 6720 c-231 -34 -427 -218 -463 -437 -9 -50 -11 -826 -9 -2893 l3 -2825 21 -55 c74 -191 213 -319 393 -365 55 -15 334 -16 2799 -12 2473 4 2742 6 2787 21 170 54 308 202 364 391 l21 70 -2 2845 -3 2845 -21 56 c-63 171 -177 281 -357 343 l-62 21 -1795 1 c-987 1 -1811 -1 -1830 -3 l-35 -4 1 -367 c0 -202 4 -393 8 -424 7 -47 6 -58 -6 -58 -8 0 -24 -11 -36 -25 -27 -31 -48 -32 -63 -3 -13 24 -34 633 -26 771 4 85 11 96 62 98 17 1 1 5 -35 9 -86 10 -1650 10 -1716 0z m5328 -312 l3 -53 37 -3 37 -3 3 48 c2 35 7 48 18 48 12 0 16 -21 18 -117 l3 -118 -32 0 -31 0 7 50 c6 44 5 50 -12 50 -31 0 -44 -16 -50 -58 -5 -36 -32 -81 -34 -56 -2 42 3 249 7 256 13 21 23 3 26 -44z m-2337 12 c0 -18 -7 -26 -25 -30 -24 -6 -25 -10 -30 -95 -4 -77 -8 -90 -23 -93 -17 -3 -18 4 -16 85 l2 88 -34 5 c-23 3 -35 11 -37 24 -7 33 26 47 98 44 62 -3 65 -4 65 -28z m135 -15 c0 -48 16 -65 63 -65 27 0 37 21 37 78 0 25 4 32 20 32 19 0 20 -6 19 -92 -2 -113 -9 -153 -29 -153 -11 0 -16 14 -18 48 -3 39 -6 48 -18 43 -9 -3 -27 -6 -40 -6 -21 0 -24 -4 -24 -39 0 -38 -23 -72 -38 -57 -4 4 -8 63 -10 132 -4 120 -3 124 17 124 18 0 21 -6 21 -45z m405 -25 c4 -32 13 -64 20 -70 11 -9 18 2 35 59 11 39 25 71 30 71 5 0 17 -25 25 -55 9 -30 20 -55 25 -55 4 0 16 23 26 51 20 56 36 74 58 66 12 -5 13 -12 4 -39 -5 -18 -20 -73 -32 -123 -26 -107 -41 -114 -73 -35 -12 30 -26 56 -31 58 -6 2 -17 -19 -27 -47 -17 -52 -37 -77 -54 -66 -13 7 -71 187 -71 219 0 18 6 26 23 28 33 6 34 3 42 -62z m810 60 c14 -23 -15 -49 -58 -52 -61 -4 -55 -21 21 -48 44 -17 40 -28 -14 -41 -42 -11 -65 -31 -51 -45 3 -4 30 -9 59 -13 39 -4 54 -11 56 -23 3 -16 -6 -18 -77 -18 l-81 0 0 119 c0 135 -5 128 87 130 28 0 55 -3 58 -9z m199 -6 c11 -28 7 -34 -21 -34 -62 0 -67 -40 -8 -61 58 -21 67 -77 22 -126 -27 -30 -46 -29 -80 2 -34 32 -37 60 -4 50 74 -24 103 7 39 42 -56 32 -74 56 -66 87 11 46 104 77 118 40z m304 -26 c16 -24 39 -52 51 -63 l22 -19 -6 50 c-6 40 -4 53 9 64 28 22 35 0 42 -123 7 -113 6 -117 -13 -117 -23 0 -40 18 -77 83 -15 27 -30 46 -33 44 -3 -3 -7 -34 -9 -68 -5 -71 -5 -72 -27 -63 -13 5 -16 24 -15 122 2 154 7 162 56 90z m-2240 -3 c2 -16 1 -59 -3 -94 -6 -54 -12 -69 -37 -93 -17 -15 -40 -28 -53 -28 -28 0 -77 45 -73 68 4 23 48 29 48 7 0 -12 8 -16 33 -13 30 3 32 6 34 43 8 114 14 146 31 143 10 -2 18 -15 20 -33z m2575 23 c33 -26 25 -42 -19 -39 -45 3 -70 -14 -80 -54 -12 -49 52 -103 84 -71 15 15 15 16 -1 16 -19 0 -41 35 -31 51 8 13 56 2 66 -14 15 -24 8 -87 -12 -107 -26 -26 -36 -25 -77 6 -70 53 -89 114 -54 168 34 50 89 70 124 44z m509 -9 c5 -8 7 -54 6 -102 -3 -102 -7 -107 -86 -107 -53 0 -53 0 -72 43 -34 73 -18 156 33 177 30 13 107 5 119 -11z m-5782 -2476 l0 -2453 -60 0 -60 0 0 2343 c0 1288 3 2392 6 2452 l7 110 53 1 54 1 0 -2454z m220 7 l0 -2450 -55 0 -55 0 0 2450 0 2450 55 0 55 0 0 -2450z m214 2424 c6 -15 5 -3288 -2 -4397 l-2 -477 -50 0 -50 0 0 2445 0 2445 49 0 c36 0 51 -4 55 -16z m216 -2428 l0 -2443 -52 -6 c-28 -4 -52 -5 -52 -4 -1 1 0 1103 2 2450 l2 2447 50 0 50 0 0 -2444z m838 2287 l-3 -38 -120 -7 c-66 -5 -153 -5 -192 -2 -68 5 -73 7 -73 29 0 13 6 27 13 32 6 4 80 10 162 14 83 3 165 6 183 7 33 2 33 1 30 -35z m4262 -306 l0 -57 -1897 3 c-1044 2 -1904 5 -1910 7 -7 2 -13 15 -12 29 0 14 3 21 5 14 4 -8 11 -7 24 5 57 48 9 46 1540 52 789 3 1618 6 1842 6 l408 -1 0 -58z m-4272 47 c12 -4 22 -14 22 -25 0 -10 5 -21 10 -24 6 -3 10 -14 10 -24 0 -25 -68 -31 -326 -31 l-204 0 0 48 c0 27 3 52 7 55 8 9 450 9 481 1z m2515 -409 c78 -8 164 -16 190 -17 l49 -3 -7 -140 c-6 -125 3 -289 22 -408 l6 -39 -104 56 c-130 69 -195 86 -324 86 -128 0 -206 -13 -330 -55 -156 -52 -337 -164 -433 -268 -50 -56 -125 -168 -151 -229 -52 -123 -72 -322 -46 -472 27 -157 66 -251 155 -371 54 -72 186 -195 256 -238 80 -48 241 -112 334 -133 158 -34 366 -16 538 48 38 14 57 17 65 9 8 -8 31 -490 23 -498 -1 -1 -83 -12 -181 -24 -488 -58 -853 24 -1171 262 -285 214 -450 475 -525 830 -17 83 -22 138 -22 269 0 251 36 399 149 620 100 196 248 362 438 492 166 114 435 212 636 231 93 9 305 6 433 -8z m1751 -113 c-18 -68 -40 -145 -48 -170 -8 -26 -22 -76 -31 -112 -20 -81 -67 -239 -105 -350 -16 -47 -44 -139 -64 -205 -19 -66 -71 -232 -116 -370 -44 -137 -110 -342 -146 -455 -36 -113 -101 -315 -145 -450 -44 -135 -90 -291 -102 -347 -13 -56 -26 -105 -29 -108 -3 -4 -84 -3 -178 1 l-173 7 -44 95 c-24 52 -56 127 -70 166 -27 75 -139 318 -280 606 -47 96 -99 203 -114 238 -16 35 -36 73 -45 85 l-16 22 7 -24 c4 -14 3 -26 -5 -31 -13 -8 -29 -71 -30 -117 0 -17 14 -60 30 -95 17 -34 33 -79 36 -98 3 -19 17 -68 31 -108 14 -39 23 -78 20 -85 -5 -13 -71 -28 -222 -48 -58 -8 -127 -7 -255 1 -96 6 -177 13 -178 15 -2 2 30 72 72 157 83 170 125 274 157 393 12 44 31 100 44 125 12 25 34 77 49 117 28 73 56 113 56 78 0 -10 3 -15 6 -12 4 3 15 2 25 -4 14 -7 19 -6 19 2 0 7 14 -3 30 -21 17 -18 30 -32 30 -29 0 2 -11 31 -25 64 -37 90 -32 148 26 333 16 51 29 102 29 113 0 19 4 21 33 15 81 -17 192 -18 237 -3 24 9 45 15 46 14 25 -30 300 -665 398 -921 13 -32 25 -55 28 -50 3 5 17 54 32 109 37 136 124 418 206 665 38 113 76 234 85 270 9 36 29 103 44 150 69 207 121 368 131 410 23 91 4 85 292 85 l255 0 -33 -123z m-4259 -774 c4 -491 4 -974 0 -1074 -4 -99 -4 -190 -1 -202 7 -22 8 -22 330 -22 178 0 384 -3 458 -6 l135 -7 37 -63 c65 -113 257 -288 424 -384 l65 -38 -74 -6 c-41 -4 -478 -7 -972 -9 l-897 -2 0 1353 0 1352 244 0 243 0 8 -892z m626 760 c19 -6 58 -27 86 -47 49 -34 64 -51 45 -51 -5 0 -29 -14 -54 -30 l-46 -31 -25 25 c-63 63 -176 35 -222 -55 -21 -40 -19 -108 5 -146 24 -41 87 -73 141 -73 34 0 47 6 73 34 l32 33 34 -29 c19 -16 46 -34 59 -39 23 -9 23 -10 -25 -41 -78 -50 -125 -68 -179 -68 -189 0 -312 157 -261 334 41 141 203 230 337 184z m3517 -2134 c123 -51 144 -191 42 -278 -73 -61 -163 -55 -233 15 -34 33 -39 44 -33 70 4 20 2 28 -5 24 -20 -13 2 69 29 109 48 70 123 93 200 60z m-1308 -674 c35 -35 26 -50 -26 -43 -58 8 -57 -8 6 -52 59 -41 68 -57 50 -90 -8 -15 -26 -33 -41 -40 -23 -12 -30 -12 -60 4 -50 27 -45 47 12 43 70 -5 72 19 3 57 -56 32 -65 51 -44 91 10 18 55 49 73 50 4 0 16 -9 27 -20z m-2030 -19 c0 -28 -3 -30 -42 -33 l-43 -3 3 -67 c4 -75 -3 -108 -24 -108 -11 0 -14 19 -14 90 l0 90 -35 0 c-32 0 -35 2 -35 30 l0 30 95 0 95 0 0 -29z m324 17 c3 -7 7 -61 10 -120 l7 -108 -26 0 c-23 0 -25 3 -25 50 l0 50 -56 0 -56 0 7 -50 c6 -46 5 -50 -13 -50 -28 0 -33 22 -31 120 2 96 5 110 25 110 10 0 14 -12 14 -40 l0 -40 55 0 55 0 0 45 c0 34 4 45 15 45 9 0 17 -6 19 -12z m422 -51 c6 -32 14 -60 16 -63 3 -3 18 25 34 61 16 36 34 65 40 65 7 0 25 -29 40 -65 16 -36 31 -65 34 -65 4 0 12 29 19 65 12 58 16 65 37 65 21 0 23 -3 17 -32 -7 -39 -61 -190 -71 -200 -14 -15 -34 11 -56 72 -13 35 -25 59 -28 54 -3 -5 -11 -35 -18 -67 -11 -50 -16 -58 -34 -55 -17 2 -27 22 -53 98 -39 117 -40 132 -11 128 18 -2 24 -13 34 -61z m722 -25 c2 -70 -1 -89 -19 -122 -27 -47 -54 -52 -95 -17 -32 28 -28 64 6 53 11 -3 28 -9 39 -12 24 -7 33 27 25 89 -9 60 2 99 24 95 14 -3 17 -17 20 -86z m300 61 c-3 -25 -8 -29 -48 -33 -38 -4 -46 -9 -48 -28 -3 -19 0 -23 15 -18 67 20 73 19 73 -7 0 -27 -16 -37 -61 -37 -22 0 -29 -5 -29 -20 0 -17 7 -20 43 -20 43 0 67 -13 67 -37 0 -10 -20 -13 -75 -13 l-75 0 0 115 0 114 58 4 c31 2 63 4 70 5 9 1 12 -7 10 -25z m804 -25 c3 -28 3 -80 0 -115 -6 -83 -22 -82 -91 5 l-54 67 6 -72 c6 -72 6 -73 -19 -73 l-24 0 0 115 c0 75 4 115 11 115 25 0 53 -26 88 -81 l38 -60 7 47 c3 26 6 60 6 75 0 18 5 29 14 29 9 0 15 -17 18 -52z m896 27 c5 -24 -13 -33 -64 -31 -38 1 -44 -2 -44 -20 0 -16 9 -22 42 -30 28 -6 44 -15 46 -26 3 -15 -4 -18 -42 -18 -39 0 -46 -3 -46 -20 0 -17 7 -20 39 -20 49 0 71 -8 71 -26 0 -18 -125 -20 -136 -3 -10 16 -15 182 -6 196 4 6 32 13 62 15 71 5 74 5 78 -17z m-628 2 c8 -7 21 -20 29 -30 14 -17 12 -18 -38 -11 -58 8 -91 -11 -91 -51 0 -36 38 -77 69 -73 36 4 33 30 -7 48 -39 19 -32 30 18 30 45 0 60 -14 60 -56 0 -40 -30 -64 -80 -64 -39 1 -65 16 -92 57 -29 45 -23 72 27 120 46 44 77 53 105 30z m202 -34 l3 -48 49 0 50 0 0 40 c1 34 5 41 24 43 22 3 22 2 22 -102 l0 -106 -26 0 c-24 0 -25 3 -23 42 4 47 -4 53 -57 44 -33 -7 -34 -9 -34 -51 0 -37 -3 -45 -19 -45 -15 0 -19 9 -23 54 -7 84 2 176 18 176 8 0 14 -16 16 -47z m414 -578 c-3 -27 -6 -78 -6 -112 l0 -63 -192 0 c-106 0 -404 5 -663 10 -258 6 -1238 11 -2177 13 l-1708 2 0 82 c0 45 -3 88 -6 97 -8 22 27 22 2580 21 l2178 0 -6 -50z m-3474 -479 c4 -6 8 -23 8 -38 0 -27 -1 -28 -60 -28 l-60 0 0 -120 c0 -101 -3 -122 -16 -127 -28 -10 -35 19 -32 132 l3 110 -42 -4 c-46 -3 -47 -2 -57 60 l-7 37 128 -5 c77 -4 131 -10 135 -17z m1784 -42 c-4 -10 -24 -14 -76 -14 l-70 0 0 -30 c0 -28 1 -29 58 -32 51 -3 57 -5 60 -27 5 -31 -12 -41 -70 -41 -44 0 -48 -2 -48 -25 0 -24 2 -25 75 -25 l75 0 0 -41 c0 -33 -3 -40 -16 -35 -9 3 -56 6 -105 6 l-89 0 0 160 0 159 103 3 c100 3 102 3 105 -20 2 -13 1 -30 -2 -38z m239 52 c23 -10 35 -22 35 -35 0 -27 -29 -54 -49 -45 -9 4 -29 8 -46 8 -23 1 -31 -4 -33 -20 -2 -16 9 -25 58 -47 49 -21 63 -32 75 -62 12 -28 13 -40 4 -58 -16 -31 -60 -66 -84 -66 -29 -1 -99 42 -103 62 -3 16 4 18 59 15 54 -3 64 0 67 15 3 12 -9 22 -42 37 -59 25 -96 62 -96 96 0 35 36 83 74 100 39 17 40 17 81 0z m1199 8 c14 -5 16 -29 16 -165 l0 -159 -30 0 -30 0 0 65 0 65 -56 0 -57 0 7 -65 7 -65 -31 0 -30 0 0 160 0 160 25 0 c24 0 25 -2 25 -65 l0 -65 55 0 55 0 0 51 c0 28 5 59 10 70 12 21 12 21 34 13z m-4084 -175 l0 -159 -30 0 -30 0 0 88 c0 49 3 123 6 164 6 72 8 75 30 70 l24 -4 0 -159z m320 79 c-1 -124 -12 -173 -46 -209 -37 -38 -99 -41 -141 -5 -27 23 -27 25 -13 56 l15 31 24 -20 c29 -25 48 -26 73 -4 15 14 18 32 18 130 l0 113 35 0 35 0 0 -92z m186 50 c-4 -24 -9 -96 -13 -160 l-6 -118 -28 0 -29 0 6 138 c7 181 7 182 46 182 30 0 31 0 24 -42z m692 -120 c2 -149 2 -157 -18 -163 -32 -10 -40 3 -40 66 l0 59 -67 0 -68 0 3 -61 4 -61 -29 4 -28 3 -3 153 -3 152 36 0 35 0 0 -59 c0 -33 4 -62 9 -65 5 -3 30 -3 55 0 41 6 46 9 46 33 0 14 3 43 7 64 5 34 9 38 32 35 l26 -3 3 -157z m510 121 c9 -23 26 -62 37 -88 l21 -46 22 64 c12 36 22 75 22 88 0 20 5 23 40 23 22 0 40 -3 39 -7 0 -5 -24 -75 -53 -158 -44 -126 -56 -151 -74 -153 -24 -4 -30 6 -60 108 l-19 65 -27 -60 c-44 -98 -51 -110 -68 -113 -11 -2 -23 9 -34 30 -18 34 -94 252 -94 269 0 5 17 9 39 9 36 0 39 -2 44 -36 7 -41 39 -124 48 -124 5 0 43 92 63 153 10 31 37 19 54 -24z m300 35 c22 -6 22 -9 22 -160 l0 -154 -29 0 c-17 0 -32 4 -35 9 -7 11 6 311 13 311 3 0 16 -3 29 -6z m304 -116 c-4 -139 -16 -171 -76 -203 -33 -18 -34 -18 -69 4 -19 12 -38 28 -41 37 -13 33 31 72 49 44 11 -17 54 -11 65 9 5 11 10 51 10 89 0 98 8 130 34 135 11 2 23 5 26 6 3 0 4 -54 2 -121z m766 116 c22 -6 22 -9 22 -160 l0 -154 -30 0 c-16 0 -30 1 -31 3 -5 11 -8 277 -4 295 6 24 8 25 43 16z m252 -87 c36 -41 68 -73 72 -70 5 2 8 38 8 79 0 72 1 74 25 74 l25 0 0 -143 c0 -104 -4 -148 -13 -161 -13 -17 -16 -16 -50 25 -19 24 -51 64 -69 88 -18 25 -37 46 -43 48 -6 2 -9 -28 -6 -82 l3 -85 -31 0 -31 0 0 153 c0 85 3 157 6 160 12 12 38 -11 104 -86z m430 68 c19 -21 22 -29 13 -43 -8 -13 -22 -16 -65 -14 -50 3 -57 1 -77 -24 -31 -39 -29 -97 5 -123 35 -28 94 -29 94 -2 0 10 -7 21 -15 25 -8 3 -15 17 -15 31 0 23 4 25 40 25 35 0 42 -4 51 -27 17 -44 7 -94 -22 -115 -94 -70 -219 7 -219 135 0 113 143 203 210 132z m620 -4 c0 -32 -17 -41 -82 -41 -31 0 -39 -4 -44 -24 -9 -38 3 -48 51 -40 58 8 87 -2 83 -29 -3 -20 -10 -22 -65 -25 l-63 -3 0 -33 0 -33 56 5 c60 5 74 -3 74 -45 0 -22 -3 -23 -89 -23 -82 0 -90 2 -96 21 -7 20 -5 264 2 284 2 6 41 11 88 13 l85 2 0 -29z m-4690 -106 l5 -120 73 -3 c62 -2 73 -5 68 -18 -3 -9 -6 -22 -6 -30 0 -11 -20 -14 -100 -14 l-100 0 0 156 0 155 28 -3 27 -3 5 -120z m-637 -203 c91 -42 157 -106 195 -190 96 -208 13 -436 -196 -539 -71 -35 -82 -38 -166 -38 -126 0 -200 28 -279 106 -74 74 -127 182 -134 272 -9 113 41 240 124 319 91 85 160 109 294 105 82 -3 106 -8 162 -35z m5089 -217 c51 -18 113 -75 160 -148 68 -106 40 -236 -75 -345 -121 -114 -267 -106 -384 21 -88 95 -107 170 -72 279 18 57 33 83 69 119 79 79 199 109 302 74z m-3598 -31 c19 -18 21 -82 4 -119 -11 -26 -38 -32 -84 -19 -18 5 -23 16 -29 70 -3 35 -4 68 0 74 10 16 92 12 109 -6z m210 6 c21 -8 26 -16 26 -44 0 -18 -6 -39 -14 -45 -12 -10 -12 -16 0 -39 18 -35 1 -41 -37 -13 -36 27 -39 26 -39 -5 0 -14 -4 -23 -10 -19 -11 7 -13 61 -4 129 6 40 10 46 30 46 12 0 34 -4 48 -10z m-876 -102 c4 -36 -25 -48 -113 -48 -94 0 -111 12 -84 61 9 18 19 19 102 17 l92 -3 3 -27z" fill="#ffffff"/>
<path d="M693 1104 c-138 -49 -214 -243 -149 -379 54 -111 139 -169 251 -169 130 0 246 81 280 197 20 67 19 102 -5 180 -36 115 -143 188 -274 186 -34 0 -80 -7 -103 -15z m161 -181 c10 -77 27 -143 36 -143 5 0 17 11 28 25 11 14 23 25 26 25 11 0 6 -96 -6 -108 -7 -7 -29 -12 -49 -12 -42 0 -69 27 -69 67 0 34 -13 28 -32 -17 -18 -44 -48 -57 -91 -41 -24 9 -27 16 -27 58 0 27 -3 78 -7 116 l-6 67 32 0 c31 0 31 -1 32 -52 2 -67 11 -110 25 -115 17 -6 43 57 49 119 5 42 11 58 23 61 26 6 29 1 36 -50z" fill="#ffffff"/>
<path d="M5890 902 c-40 -19 -72 -48 -100 -90 -56 -84 -36 -197 44 -251 88 -59 156 -65 249 -21 65 31 100 83 105 159 4 52 1 60 -30 101 -18 25 -53 58 -76 74 -36 25 -54 31 -110 33 -37 1 -74 -1 -82 -5z m-1 -129 c6 -21 11 -46 11 -56 0 -10 5 -17 12 -15 12 4 16 11 42 71 8 20 22 37 31 37 8 0 15 -1 15 -2 0 -2 11 -29 24 -61 l23 -58 11 44 c11 43 45 86 55 70 8 -13 -34 -186 -49 -202 -12 -13 -16 -12 -34 4 -11 10 -25 35 -30 57 -13 47 -26 49 -34 4 -4 -19 -15 -45 -26 -58 -20 -23 -20 -23 -35 -3 -20 25 -55 138 -55 176 0 43 27 37 39 -8z" fill="#ffffff"/>
<path d="M6660 523 c0 -24 -33 -110 -72 -186 -45 -91 -161 -202 -266 -256 -46 -23 -107 -51 -135 -61 l-52 -19 268 0 267 -1 0 270 c0 149 -2 270 -5 270 -3 0 -5 -8 -5 -17z" fill="#ffffff"/>
<path d="M0 268 l0 -268 268 0 267 0 -83 29 c-114 40 -182 83 -266 171 -83 87 -129 162 -162 264 l-23 71 -1 -267z" fill="#ffffff"/>
</g>
</svg>